# xmcd
#
# Track frame offsets:
#	150
#	25313
#	37985
#	58011
#	70194
#	89961
#	103041
#	119992
#	133071
#	145137
#	155402
#	166679
#	188248
#	201453
#	211890
#
# Disc length: 3055
#
# Revision: 2
# Processed by: cddbd v1.5.1PL0 Copyright (c) Steve Scherf et al.
# Submitted via: Grip 3.0.6
# Normalized: r1:DSETVAR1
#
DISCID=e50bed0f
DTITLE=Various Artist - The Blues Disc 2
DYEAR=2003
DGENRE=Blues
TTITLE0=Howlin' Wolf - Little Red Rooster
TTITLE1=Muddy Waters - All Aboard
TTITLE2=Lightnin' Hopkins - Don't Treat That Man The Way You Treat Me
TTITLE3=John Lee Hooker - I'm In The Mood
TTITLE4=Joe Turner - Nothin' From Nuthin' Blues
TTITLE5=Bessie Smith - Standing In The Rain
TTITLE6=Jimmy Witherspoon - I'm Gonna Move To The Outskirts Of Town
TTITLE7=Memphis Slim - Jasper's Gal
TTITLE8=Lowell Fulson - Jennie Lee
TTITLE9=Robert Johnson - Stop Breakin' Down Blues
TTITLE10=Sonny Boy Williamson - Your Funeral And My Trial
TTITLE11=Big Bill Broonzy - Feelin' Low Down
TTITLE12=Leadbelly - Roberta
TTITLE13=Lonnie Johnson - I Can't Sleep Anymore
TTITLE14=Otis Spann - Evil Ways
EXTD=
EXTT0=
EXTT1=
EXTT2=
EXTT3=
EXTT4=
EXTT5=
EXTT6=
EXTT7=
EXTT8=
EXTT9=
EXTT10=
EXTT11=
EXTT12=
EXTT13=
EXTT14=
PLAYORDER=
